<svg width="20" height="24" fill="none" xmlns="http://www.w3.org/2000/svg"><symbol id="basket" viewBox="0 0 24 24"><path d="M18.166 6.167h-3.5V5a4.667 4.667 0 0 0-9.333 0v1.167h-3.5A1.167 1.167 0 0 0 .667 7.333v12.834a3.5 3.5 0 0 0 3.5 3.5h11.666a3.5 3.5 0 0 0 3.5-3.5V7.333a1.167 1.167 0 0 0-1.166-1.166ZM7.666 5a2.333 2.333 0 1 1 4.667 0v1.167H7.666V5ZM17 20.167a1.166 1.166 0 0 1-1.167 1.166H4.167A1.167 1.167 0 0 1 3 20.167V8.5h2.333v1.167a1.166 1.166 0 1 0 2.333 0V8.5h4.667v1.167a1.166 1.166 0 1 0 2.333 0V8.5H17v11.667Z" fill="#AE1332"/></symbol><symbol id="arrow" viewBox="0 0 24 24"><path d="M14 2.074 11.926 0v10.37L1.556 0 0 1.556l10.37 10.37H0L2.074 14H14V2.074Z" fill="#141414"/></symbol><symbol id="fb" viewBox="0 0 24 24"><rect x=".5" y=".5" width="43" height="43" rx="9.5" stroke="#AE1332"/><path d="M25.08 12.06h.84v3.15h-1.05c-.42 0-.84 0-1.05.21-.21.21-.21.42-.21.91v1.12h2.31v2.66h-2.31v11.55h-3.57V20.04h-1.89v-2.66h1.89v-.91c0-1.54.21-2.66.63-3.15.63-.91 1.89-1.33 3.78-1.33.21.07.42.07.63.07Z" fill="#AE1332" opacity=".8"/></symbol><symbol id="ig" viewBox="0 0 24 24"><rect x=".5" y=".5" width="43" height="43" rx="9.5" stroke="#AE1332"/><g opacity=".8" fill="#AE1332"><path d="M33.128 17.412a8.099 8.099 0 0 0-.522-2.752 5.73 5.73 0 0 0-3.275-3.27 8.23 8.23 0 0 0-2.719-.522c-1.196-.053-1.576-.068-4.613-.068-3.038 0-3.427 0-4.615.068a8.23 8.23 0 0 0-2.718.522 5.726 5.726 0 0 0-3.275 3.27 8.126 8.126 0 0 0-.521 2.713c-.054 1.196-.07 1.575-.07 4.607 0 3.033 0 3.42.07 4.607.018.93.194 1.846.52 2.716a5.73 5.73 0 0 0 3.277 3.269 8.2 8.2 0 0 0 2.718.558c1.198.054 1.577.07 4.615.07 3.037 0 3.427 0 4.615-.07a8.208 8.208 0 0 0 2.719-.52 5.736 5.736 0 0 0 3.275-3.27c.327-.869.502-1.785.521-2.715.054-1.195.07-1.574.07-4.608-.003-3.032-.003-3.417-.072-4.605ZM21.99 27.715a5.744 5.744 0 0 1-5.75-5.741 5.745 5.745 0 0 1 5.75-5.741c3.175 0 5.75 2.57 5.75 5.741a5.746 5.746 0 0 1-5.75 5.74Zm5.98-10.356a1.338 1.338 0 1 1 0-2.677 1.339 1.339 0 1 1 0 2.677Z"/><path d="M21.993 25.479a3.503 3.503 0 1 0 0-7.007 3.503 3.503 0 0 0 0 7.007Z"/></g></symbol><symbol id="logo" viewBox="0 0 16 16" fill="none"><path d="M14.541.157h-2.005a1.11 1.11 0 0 0-1.12 1.098v1.964a1.11 1.11 0 0 0 1.12 1.098h2.005a1.11 1.11 0 0 0 1.12-1.098V1.255a1.11 1.11 0 0 0-1.12-1.098ZM3.365 11.52H1.206C.54 11.52 0 12.012 0 12.618v1.964c0 .607.54 1.098 1.206 1.098h2.16c.665 0 1.205-.491 1.205-1.098v-1.964c0-.607-.54-1.098-1.206-1.098ZM3.125 5.79H1.12C.501 5.79 0 6.283 0 6.89v1.964a1.11 1.11 0 0 0 1.12 1.098h2.005a1.11 1.11 0 0 0 1.12-1.098V6.89c0-.607-.502-1.098-1.12-1.098ZM8.883 11.49H6.878c-.618 0-1.12.49-1.12 1.097v1.964a1.11 1.11 0 0 0 1.12 1.098h2.005a1.11 1.11 0 0 0 1.12-1.098v-1.964a1.11 1.11 0 0 0-1.12-1.098ZM3.125.043H1.12C.501.043 0 .535 0 1.141v1.964a1.11 1.11 0 0 0 1.12 1.098h2.005a1.11 1.11 0 0 0 1.12-1.098V1.141c0-.606-.502-1.098-1.12-1.098ZM9.038 5.849H7.033c-.618 0-1.12.491-1.12 1.097v1.965a1.11 1.11 0 0 0 1.12 1.098h2.005c.619 0 1.12-.492 1.12-1.098V6.946c0-.606-.501-1.097-1.12-1.097ZM14.667 11.49h-2.005c-.619 0-1.12.49-1.12 1.097v1.964a1.11 1.11 0 0 0 1.12 1.098h2.005a1.11 1.11 0 0 0 1.12-1.098v-1.964c0-.607-.502-1.098-1.12-1.098ZM8.795.112H6.791c-.619 0-1.12.491-1.12 1.098v1.964a1.11 1.11 0 0 0 1.12 1.098h2.004a1.11 1.11 0 0 0 1.12-1.098V1.21c0-.607-.501-1.098-1.12-1.098ZM14.522 5.963h-2.005c-.618 0-1.12.491-1.12 1.098v1.964a1.11 1.11 0 0 0 1.12 1.098h2.005a1.11 1.11 0 0 0 1.12-1.098V7.061c0-.607-.502-1.098-1.12-1.098Z" fill="#AE1332"/></symbol><symbol id="yt" viewBox="0 0 24 24"><rect x=".5" y=".5" width="43" height="43" rx="9.5" stroke="#AE1332"/><path fill-rule="evenodd" clip-rule="evenodd" d="M29.21 13.25c-1.19-.07-3.64-.14-7.35-.14h-.49c-3.57 0-5.95.07-7.14.21-1.61.14-2.73.56-3.36 1.12-.56.49-.98 1.4-1.12 2.59-.07.77-.14 2.38-.14 4.83v.35c0 2.31.07 3.92.21 4.69.21 1.12.56 1.96 1.26 2.45.7.56 1.89.91 3.57 1.05 1.19.07 3.64.14 7.35.14h.49c3.57 0 5.95-.07 7.14-.21 1.61-.14 2.73-.56 3.36-1.12.56-.49.98-1.4 1.12-2.59.07-.77.14-2.38.14-4.83v-.35c0-2.31-.07-3.92-.21-4.69-.21-1.12-.56-1.96-1.26-2.45-.7-.56-1.89-.91-3.57-1.05Zm-2.73 8.61-7.7 4.62v-9.24l7.7 4.62Z" fill="#AE1332" opacity=".8"/></symbol><symbol id="cbtn" viewBox="0 0 114 114" fill="none"><circle cx="57" cy="57" r="57" fill="#fff"/></symbol><symbol id="frame" viewBox="0 0 486 742" fill="none"><mask id="path-1-inside-1_5503_35" fill="#fff"><path fill-rule="evenodd" clip-rule="evenodd" d="M485 499V243C485 109.347 376.653 1 243 1 109.347 1 1 109.347 1 243v256c0 133.653 108.347 242 242 242 133.653 0 242-108.347 242-242ZM243 0C108.795 0 0 108.795 0 243v256c0 134.205 108.795 243 243 243 134.205 0 243-108.795 243-243V243C486 108.795 377.205 0 243 0Z"/></mask><path d="M486 499V243h-2v256h2Zm0-256C486 108.795 377.205 0 243 0v2c133.101 0 241 107.899 241 241h2ZM243 0C108.795 0 0 108.795 0 243h2C2 109.899 109.899 2 243 2V0ZM0 243v256h2V243H0Zm0 256c0 134.205 108.795 243 243 243v-2C109.899 740 2 632.101 2 499H0Zm243 243c134.205 0 243-108.795 243-243h-2c0 133.101-107.899 241-241 241v2Zm0-743C108.243-1-1 108.243-1 243h2C1 109.347 109.347 1 243 1v-2ZM-1 243v256h2V243h-2Zm0 256c0 134.757 109.243 244 244 244v-2C109.347 741 1 632.653 1 499h-2Zm244 244c134.757 0 244-109.243 244-244h-2c0 133.653-108.347 242-242 242v2Zm244-244V243h-2v256h2Zm0-256C487 108.243 377.757-1 243-1v2c133.653 0 242 108.347 242 242h2Z" fill="url('#paint0_linear_5503_35')" mask="url('#path-1-inside-1_5503_35')"/><defs><linearGradient id="paint0_linear_5503_35" x1="258" y1="755" x2="257" y2="171" gradientUnits="userSpaceOnUse"><stop stop-color="#fff"/><stop offset=".411" stop-color="#fff" stop-opacity=".442"/><stop offset="1" stop-color="#fff" stop-opacity="0"/></linearGradient></defs></symbol><symbol id="shadow" viewBox="0 0 251 94"><g opacity=".15" filter="url('#filter0_f_89_68')"><path fill-rule="evenodd" clip-rule="evenodd" d="M125.5 66c53.848 0 97.5-8.507 97.5-19s-43.652-19-97.5-19S28 36.507 28 47s43.652 19 97.5 19Z" fill="#000"/></g><defs><filter id="filter0_f_89_68" x=".817" y=".817" width="249.366" height="92.366" filterUnits="userSpaceOnUse" color-interpolation-filters="sRGB"><feFlood flood-opacity="0" result="BackgroundImageFix"/><feBlend in="SourceGraphic" in2="BackgroundImageFix" result="shape"/><feGaussianBlur stdDeviation="13.591" result="effect1_foregroundBlur_89_68"/></filter></defs></symbol><symbol id="icon-blocks" viewBox="0 0 32 32"><path d="M29.082.314h-4.009c-1.237 0-2.24.983-2.24 2.195v3.929c0 1.212 1.003 2.195 2.24 2.195h4.009c1.237 0 2.24-.983 2.24-2.195V2.509c0-1.212-1.003-2.195-2.24-2.195zM6.73 23.04H2.412C1.08 23.04 0 24.023 0 25.235v3.929c0 1.213 1.08 2.195 2.412 2.195H6.73c1.332 0 2.412-.983 2.412-2.195v-3.929c0-1.212-1.08-2.195-2.412-2.195zM6.25 11.582H2.241c-1.237 0-2.24.983-2.24 2.195v3.929c0 1.212 1.003 2.195 2.24 2.195H6.25c1.237 0 2.24-.983 2.24-2.195v-3.929c0-1.212-1.003-2.195-2.24-2.195zM17.766 22.978h-4.009c-1.237 0-2.24.983-2.24 2.195v3.929c0 1.212 1.003 2.195 2.241 2.195h4.009c1.237 0 2.24-.983 2.24-2.195v-3.929c0-1.213-1.003-2.195-2.24-2.195zM6.25.086H2.241c-1.237 0-2.24.983-2.24 2.195V6.21c0 1.212 1.003 2.195 2.24 2.195H6.25c1.237 0 2.24-.983 2.24-2.195V2.281C8.49 1.069 7.487.086 6.25.086zM18.076 11.697h-4.009c-1.237 0-2.24.983-2.24 2.195v3.929c0 1.212 1.003 2.195 2.24 2.195h4.009c1.237 0 2.24-.983 2.24-2.195v-3.929c0-1.212-1.003-2.195-2.24-2.195zM29.333 22.978h-4.01c-1.237 0-2.24.983-2.24 2.195v3.929c0 1.212 1.003 2.195 2.24 2.195h4.009c1.237 0 2.24-.983 2.24-2.195v-3.929c0-1.213-1.003-2.195-2.24-2.195zM17.591.224h-4.009c-1.237 0-2.24.983-2.24 2.195v3.929c0 1.212 1.003 2.195 2.24 2.195h4.009c1.237 0 2.24-.984 2.24-2.196V2.418c0-1.212-1.003-2.195-2.24-2.195zM29.044 11.926h-4.01c-1.237 0-2.24.983-2.24 2.195v3.929c0 1.212 1.003 2.195 2.24 2.195h4.009c1.237 0 2.24-.983 2.24-2.195v-3.929c0-1.212-1.003-2.195-2.24-2.195z"/></symbol><symbol id="icon-instagram" viewBox="0 0 32 32"><path d="M28.718 10.756a9.264 9.264 0 0 0-.596-3.145 6.547 6.547 0 0 0-3.743-3.737 9.42 9.42 0 0 0-3.108-.596c-1.368-.061-1.801-.078-5.273-.078s-3.916 0-5.274.078a9.413 9.413 0 0 0-3.106.596 6.541 6.541 0 0 0-3.743 3.737 9.288 9.288 0 0 0-.596 3.101c-.061 1.367-.08 1.8-.08 5.265s0 3.909.08 5.265a9.335 9.335 0 0 0 .596 3.104 6.548 6.548 0 0 0 3.744 3.735 9.37 9.37 0 0 0 3.106.639c1.369.061 1.803.08 5.274.08s3.916 0 5.274-.08a9.362 9.362 0 0 0 3.108-.595 6.555 6.555 0 0 0 3.743-3.737 9.35 9.35 0 0 0 .596-3.104c.061-1.365.08-1.798.08-5.265-.003-3.466-.003-3.906-.082-5.264zM15.99 22.531c-3.631 0-6.572-2.936-6.572-6.561s2.941-6.561 6.572-6.561c3.628 0 6.572 2.936 6.572 6.561s-2.944 6.561-6.572 6.561zm6.834-11.835a1.53 1.53 0 1 1 0-3.06 1.53 1.53 0 1 1 0 3.06z"/><path d="M15.992 19.976a4.004 4.004 0 1 0 0-8.009 4.004 4.004 0 0 0 0 8.009z"/></symbol><symbol id="icon-youtube" viewBox="0 0 32 32"><path d="M24.24 6c-1.36-.08-4.16-.16-8.4-.16h-.56c-4.08 0-6.8.08-8.16.24-1.84.16-3.12.64-3.84 1.28-.64.56-1.12 1.6-1.28 2.96-.08.88-.16 2.72-.16 5.52v.4c0 2.64.08 4.48.24 5.36.24 1.28.64 2.24 1.44 2.8.8.64 2.16 1.04 4.08 1.2 1.36.08 4.16.16 8.4.16h.56c4.08 0 6.8-.08 8.16-.24 1.84-.16 3.12-.64 3.84-1.28.64-.56 1.12-1.6 1.28-2.96.08-.88.16-2.72.16-5.52v-.4c0-2.64-.08-4.48-.24-5.36-.24-1.28-.64-2.24-1.44-2.8-.8-.64-2.16-1.04-4.08-1.2zm-3.12 9.84-8.8 5.28V10.56l8.8 5.28z"/></symbol><symbol id="icon-bag" viewBox="0 0 32 32"><path d="M25.333 9.333h-4V8a5.332 5.332 0 1 0-10.666 0v1.333h-4a1.333 1.333 0 0 0-1.334 1.333v14.667a4.003 4.003 0 0 0 4 4h13.333a4 4 0 0 0 4-4V10.666a1.331 1.331 0 0 0-1.333-1.333zM13.333 8a2.668 2.668 0 0 1 5.334 0v1.333h-5.333V8zM24 25.333a1.333 1.333 0 0 1-1.333 1.334H9.334A1.334 1.334 0 0 1 8 25.333V12h2.667v1.333a1.335 1.335 0 0 0 2.277.943c.25-.25.39-.589.39-.943V12h5.333v1.333a1.333 1.333 0 1 0 2.666 0V12H24v13.333z"/></symbol><symbol id="icon-arrow" viewBox="0 0 32 32"><path d="M32 4.741 27.259 0v23.704L3.555 0-.001 3.556 23.703 27.26H-.001l4.741 4.741h27.259V4.742z"/></symbol><symbol id="icon-facebook" viewBox="0 0 12 32"><path d="M10.788 1.616h1.28v4.8h-1.6c-.64 0-1.28 0-1.6.32-.32.32-.32.64-.32 1.387V9.83h3.52v4.053h-3.52v17.6h-5.44V13.776H.228V9.723h2.88V8.336c0-2.347.32-4.053.96-4.8.96-1.387 2.88-2.027 5.76-2.027.32.107.64.107.96.107z"/></symbol><symbol id="modal-close-btn-icon" viewBox="0 0 24 24"><path d="M18 6 6 18M6 6l12 12" stroke-width="2" stroke-linecap="round" stroke-linejoin="round"/></symbol><symbol id="icon-check" viewBox="0 0 32 32"><path d="M20.061 10.162a1.28 1.28 0 0 1 2.119 1.437l-6.942 10.24a1.28 1.28 0 0 1-2.119 0l-3.298-4.864a1.28 1.28 0 0 1 2.119-1.437l2.238 3.301 5.883-8.677z"/><path stroke="#fff" style="stroke:var(--color1,#fff)" stroke-width="2.4" d="M6.4 1.2h19.2a5.2 5.2 0 0 1 5.2 5.2v19.2a5.2 5.2 0 0 1-5.2 5.2H6.4a5.2 5.2 0 0 1-5.2-5.2V6.4a5.2 5.2 0 0 1 5.2-5.2z"/></symbol></svg>