<svg width="20" height="24" viewBox="0 0 20 24" fill="none" xmlns="http://www.w3.org/2000/svg">

<symbol id="basket" viewBox="0 0 24 24">
<path d="M18.1665 6.16659H14.6665V4.99992C14.6665 3.76224 14.1748 2.57526 13.2997 1.70009C12.4245 0.824917 11.2375 0.333252 9.99983 0.333252C8.76216 0.333252 7.57517 0.824917 6.7 1.70009C5.82483 2.57526 5.33317 3.76224 5.33317 4.99992V6.16659H1.83317C1.52375 6.16659 1.22701 6.2895 1.00821 6.50829C0.78942 6.72709 0.666504 7.02383 0.666504 7.33325V20.1666C0.666504 21.0948 1.03525 21.9851 1.69163 22.6415C2.34801 23.2978 3.23824 23.6666 4.1665 23.6666H15.8332C16.7614 23.6666 17.6517 23.2978 18.308 22.6415C18.9644 21.9851 19.3332 21.0948 19.3332 20.1666V7.33325C19.3332 7.02383 19.2102 6.72709 18.9915 6.50829C18.7727 6.2895 18.4759 6.16659 18.1665 6.16659ZM7.6665 4.99992C7.6665 4.38108 7.91233 3.78759 8.34992 3.35C8.7875 2.91242 9.38099 2.66659 9.99983 2.66659C10.6187 2.66659 11.2122 2.91242 11.6497 3.35C12.0873 3.78759 12.3332 4.38108 12.3332 4.99992V6.16659H7.6665V4.99992ZM16.9998 20.1666C16.9998 20.476 16.8769 20.7728 16.6581 20.9915C16.4393 21.2103 16.1426 21.3333 15.8332 21.3333H4.1665C3.85708 21.3333 3.56034 21.2103 3.34154 20.9915C3.12275 20.7728 2.99984 20.476 2.99984 20.1666V8.49992H5.33317V9.66659C5.33317 9.97601 5.45608 10.2728 5.67488 10.4915C5.89367 10.7103 6.19041 10.8333 6.49983 10.8333C6.80925 10.8333 7.106 10.7103 7.32479 10.4915C7.54358 10.2728 7.6665 9.97601 7.6665 9.66659V8.49992H12.3332V9.66659C12.3332 9.97601 12.4561 10.2728 12.6749 10.4915C12.8937 10.7103 13.1904 10.8333 13.4998 10.8333C13.8092 10.8333 14.106 10.7103 14.3248 10.4915C14.5436 10.2728 14.6665 9.97601 14.6665 9.66659V8.49992H16.9998V20.1666Z" fill="#AE1332"/>
</symbol>


<symbol id="arrow" viewBox="0 0 24 24">
<path d="M14 2.07407L11.9259 0V10.3704L1.55556 0L0 1.55556L10.3704 11.9259H0L2.07407 14H14V2.07407Z" fill="#141414"/>
</symbol>


<symbol id="fb" viewBox="0 0 24 24">
<rect x="0.5" y="0.5" width="43" height="43" rx="9.5" stroke="#AE1332"/>
<g opacity="0.8">
<path d="M25.0799 12.0602C25.2899 12.0602 25.4999 12.0602 25.9199 12.0602V15.2102C25.7099 15.2102 25.2899 15.2102 24.8699 15.2102C24.4499 15.2102 24.0299 15.2102 23.8199 15.4202C23.6099 15.6302 23.6099 15.8402 23.6099 16.3302C23.6099 16.7502 23.6099 17.0302 23.6099 17.4502H25.9199V20.1102H23.6099V31.6602H20.0399V20.0402H18.1499V17.3802H20.0399V16.4702C20.0399 14.9302 20.2499 13.8102 20.6699 13.3202C21.2999 12.4102 22.5599 11.9902 24.4499 11.9902C24.6599 12.0602 24.8699 12.0602 25.0799 12.0602Z" fill="#AE1332"/>
</g>
</symbol>

<symbol id="ig" viewBox="0 0 24 24">
<rect x="0.5" y="0.5" width="43" height="43" rx="9.5" stroke="#AE1332"/>
<g opacity="0.8">
<path d="M33.1277 17.4115C33.114 16.4715 32.9398 15.5388 32.6065 14.6596C32.0231 13.1583 30.8352 11.9711 29.3313 11.3899C28.4618 11.0633 27.5426 10.8882 26.6122 10.8683C25.4155 10.815 25.0361 10.8 21.9986 10.8C18.961 10.8 18.5716 10.8 17.3837 10.8683C16.4545 10.8882 15.5353 11.0633 14.6658 11.3899C13.162 11.9711 11.9728 13.1583 11.3907 14.6596C11.0635 15.5277 10.8869 16.4454 10.8695 17.373C10.816 18.5689 10.7998 18.9477 10.7998 21.9802C10.7998 25.0127 10.7998 25.4002 10.8695 26.5873C10.8881 27.5162 11.0635 28.4327 11.3907 29.3032C11.974 30.8033 13.162 31.9905 14.6671 32.5717C15.5328 32.9095 16.452 33.1007 17.385 33.1305C18.5828 33.1839 18.9622 33.2001 21.9998 33.2001C25.0374 33.2001 25.4267 33.2001 26.6146 33.1305C27.5438 33.1119 28.4631 32.9368 29.3338 32.6102C30.8377 32.0278 32.0256 30.8406 32.609 29.3405C32.9361 28.4712 33.1115 27.5547 33.1301 26.6246C33.1836 25.43 33.1998 25.0512 33.1998 22.0174C33.1973 18.9849 33.1973 18.5999 33.1277 17.4115ZM21.9911 27.7149C18.8142 27.7149 16.2406 25.1456 16.2406 21.974C16.2406 18.8024 18.8142 16.233 21.9911 16.233C25.1655 16.233 27.7416 18.8024 27.7416 21.974C27.7416 25.1456 25.1655 27.7149 21.9911 27.7149ZM27.9705 17.3594C27.2279 17.3594 26.6296 16.7608 26.6296 16.0207C26.6296 15.2805 27.2279 14.682 27.9705 14.682C28.7106 14.682 29.3102 15.2805 29.3102 16.0207C29.3102 16.7608 28.7106 17.3594 27.9705 17.3594Z" fill="#AE1332"/>
<path d="M21.9932 25.4789C23.9282 25.4789 25.4967 23.9104 25.4967 21.9754C25.4967 20.0405 23.9282 18.4719 21.9932 18.4719C20.0583 18.4719 18.4897 20.0405 18.4897 21.9754C18.4897 23.9104 20.0583 25.4789 21.9932 25.4789Z" fill="#AE1332"/>
</g>
</symbol>

<symbol id="logo" width="16" height="16" viewBox="0 0 16 16" fill="none">
<path d="M14.5411 0.156924H12.5364C11.9178 0.156924 11.4163 0.648347 11.4163 1.25459V3.21923C11.4163 3.82547 11.9178 4.31692 12.5364 4.31692H14.5411C15.1597 4.31692 15.6612 3.82547 15.6612 3.21923V1.25459C15.6612 0.648347 15.1597 0.156924 14.5411 0.156924Z" fill="#AE1332"/>
<path d="M3.36519 11.52H1.20624C0.540049 11.52 0 12.0115 0 12.6177V14.5823C0 15.1886 0.540049 15.68 1.20624 15.68H3.36519C4.03138 15.68 4.57143 15.1886 4.57143 14.5823V12.6177C4.57143 12.0115 4.03138 11.52 3.36519 11.52Z" fill="#AE1332"/>
<path d="M3.1248 5.79091H1.12007C0.501486 5.79091 0 6.28233 0 6.88857V8.85321C0 9.45945 0.501599 9.95091 1.12018 9.95091H3.1248C3.74341 9.95091 4.2449 9.45945 4.2449 8.85321V6.88857C4.2449 6.28233 3.74341 5.79091 3.1248 5.79091Z" fill="#AE1332"/>
<path d="M8.88295 11.4891H6.87822C6.25964 11.4891 5.75815 11.9805 5.75815 12.5868L5.75804 14.5514C5.75804 15.1576 6.25975 15.6491 6.87833 15.6491H8.88295C9.50157 15.6491 10.0031 15.1576 10.0031 14.5514V12.5868C10.0031 11.9805 9.50157 11.4891 8.88295 11.4891Z" fill="#AE1332"/>
<path d="M3.1248 0.0431361H1.12007C0.501486 0.0431361 0 0.534559 0 1.1408V3.10544C0 3.71168 0.501599 4.20314 1.12018 4.20314H3.1248C3.74341 4.20314 4.2449 3.71168 4.2449 3.10544V1.1408C4.2449 0.534559 3.74341 0.0431361 3.1248 0.0431361Z" fill="#AE1332"/>
<path d="M9.03794 5.84874H7.03321C6.41463 5.84874 5.91314 6.34016 5.91314 6.9464V8.91104C5.91314 9.51728 6.41474 10.0087 7.03332 10.0087H9.03794C9.65655 10.0087 10.158 9.51728 10.158 8.91104V6.9464C10.158 6.34016 9.65655 5.84874 9.03794 5.84874Z" fill="#AE1332"/>
<path d="M14.6667 11.4891H12.6619C12.0434 11.4891 11.5419 11.9805 11.5419 12.5868V14.5514C11.5419 15.1576 12.0435 15.6491 12.662 15.6491H14.6667C15.2853 15.6491 15.7868 15.1576 15.7868 14.5514V12.5868C15.7868 11.9805 15.2853 11.4891 14.6667 11.4891Z" fill="#AE1332"/>
<path d="M8.7953 0.111854H6.79056C6.17198 0.111854 5.6705 0.603277 5.6705 1.20952V3.17416C5.6705 3.7804 6.1721 4.27185 6.79068 4.27185H8.7953C9.41391 4.27185 9.91539 3.78003 9.91539 3.17379V1.20952C9.91539 0.603277 9.41391 0.111854 8.7953 0.111854Z" fill="#AE1332"/>
<path d="M14.5219 5.96291H12.5171C11.8985 5.96291 11.3971 6.45433 11.3971 7.06057V9.02521C11.3971 9.63145 11.8987 10.1229 12.5172 10.1229H14.5219C15.1405 10.1229 15.642 9.63145 15.642 9.02521V7.06057C15.642 6.45433 15.1405 5.96291 14.5219 5.96291Z" fill="#AE1332"/>
</symbol>

<symbol id="yt" viewBox="0 0 24 24">
<rect x="0.5" y="0.5" width="43" height="43" rx="9.5" stroke="#AE1332"/>
<g opacity="0.8">
<path fill-rule="evenodd" clip-rule="evenodd" d="M29.2099 13.2499C28.0199 13.1799 25.5699 13.1099 21.8599 13.1099H21.3699C17.7999 13.1099 15.4199 13.1799 14.2299 13.3199C12.6199 13.4599 11.4999 13.8799 10.8699 14.4399C10.3099 14.9299 9.88987 15.8399 9.74987 17.0299C9.67987 17.7999 9.60986 19.4099 9.60986 21.8599V22.2099C9.60986 24.5199 9.67985 26.1299 9.81985 26.8999C10.0299 28.0199 10.3799 28.8599 11.0799 29.3499C11.7799 29.9099 12.9699 30.2599 14.6499 30.3999C15.8399 30.4699 18.2899 30.5399 21.9999 30.5399H22.4899C26.0599 30.5399 28.4399 30.4699 29.6299 30.3299C31.2399 30.1899 32.3599 29.7699 32.9899 29.2099C33.5499 28.7199 33.9699 27.8099 34.1099 26.6199C34.1799 25.8499 34.2499 24.2399 34.2499 21.7899V21.4399C34.2499 19.1299 34.1799 17.5199 34.0399 16.7499C33.8299 15.6299 33.4799 14.7899 32.7799 14.2999C32.0799 13.7399 30.8899 13.3899 29.2099 13.2499ZM26.4799 21.8599L18.7799 26.4799V17.2399L26.4799 21.8599Z" fill="#AE1332"/>
</g>
</symbol>

<symbol id="cbtn" width="114" height="114" viewBox="0 0 114 114" fill="none">
  <circle cx="57" cy="57" r="57" fill="white"/>
</symbol>

<symbol id="frame" width="486" height="742" viewBox="0 0 486 742" fill="none">
  <mask id="path-1-inside-1_5503_35" fill="white">
    <path fill-rule="evenodd" clip-rule="evenodd" d="M485 499V243C485 109.347 376.653 1 243 1C109.347 1 1 109.347 1 243V499C1 632.653 109.347 741 243 741C376.653 741 485 632.653 485 499ZM243 0C108.795 0 0 108.795 0 243V499C0 633.205 108.795 742 243 742C377.205 742 486 633.205 486 499V243C486 108.795 377.205 0 243 0Z"/>
  </mask>
  <path d="M486 499V243H484V499H486ZM486 243C486 108.795 377.205 0 243 0V2C376.101 2 484 109.899 484 243H486ZM243 0C108.795 0 0 108.795 0 243H2C2 109.899 109.899 2 243 2V0ZM0 243V499H2V243H0ZM0 499C0 633.205 108.795 742 243 742V740C109.899 740 2 632.101 2 499H0ZM243 742C377.205 742 486 633.205 486 499H484C484 632.101 376.101 740 243 740V742ZM243 -1C108.243 -1 -1 108.243 -1 243H1C1 109.347 109.347 1 243 1V-1ZM-1 243V499H1V243H-1ZM-1 499C-1 633.757 108.243 743 243 743V741C109.347 741 1 632.653 1 499H-1ZM243 743C377.757 743 487 633.757 487 499H485C485 632.653 376.653 741 243 741V743ZM487 499V243H485V499H487ZM487 243C487 108.243 377.757 -1 243 -1V1C376.653 1 485 109.347 485 243H487Z" fill="url(#paint0_linear_5503_35)" mask="url(#path-1-inside-1_5503_35)"/>
  <defs>
    <linearGradient id="paint0_linear_5503_35" x1="258" y1="755" x2="257" y2="171" gradientUnits="userSpaceOnUse">
      <stop stop-color="white"/>
      <stop offset="0.411317" stop-color="white" stop-opacity="0.441769"/>
      <stop offset="1" stop-color="white" stop-opacity="0"/>
    </linearGradient>
  </defs>
</symbol>

</svg>
