<svg xmlns="http://www.w3.org/2000/svg" width="14" height="14" fill="none" viewBox="0 0 14 14">
  <path id="arrow" fill="#141414" d="M14 2.074 11.926 0v10.37L1.556 0 0 1.556l10.37 10.37H0L2.074 14H14V2.074Z"/>
</svg>

<svg xmlns="http://www.w3.org/2000/svg" width="44" height="44" fill="none" viewBox="0 0 44 44">
  <rect width="43" height="43" x=".5" y=".5" stroke="#AE1332" rx="9.5"/>
  <path id="fb" fill="#AE1332" d="M25.08 12.06h.84v3.15h-1.05c-.42 0-.84 0-1.05.21-.21.21-.21.42-.21.91v1.12h2.31v2.66h-2.31v11.55h-3.57V20.04h-1.89v-2.66h1.89v-.91c0-1.54.21-2.66.63-3.15.63-.91 1.89-1.33 3.78-1.33.21.07.42.07.63.07Z" opacity=".8"/>
</svg>

<svg xmlns="http://www.w3.org/2000/svg" width="44" height="44" fill="none" viewBox="0 0 44 44">
  <rect width="43" height="43" x=".5" y=".5" stroke="#AE1332" rx="9.5"/>
  <g opacity=".8">
    <path fill="#AE1332" d="M33.128 17.412a8.099 8.099 0 0 0-.522-2.752 5.73 5.73 0 0 0-3.275-3.27 8.23 8.23 0 0 0-2.719-.522c-1.196-.053-1.576-.068-4.613-.068-3.038 0-3.427 0-4.615.068a8.23 8.23 0 0 0-2.718.522 5.726 5.726 0 0 0-3.275 3.27 8.126 8.126 0 0 0-.521 2.713c-.054 1.196-.07 1.575-.07 4.607 0 3.033 0 3.42.07 4.607.018.93.194 1.846.52 2.716a5.73 5.73 0 0 0 3.277 3.269 8.2 8.2 0 0 0 2.718.558c1.198.054 1.577.07 4.615.07 3.037 0 3.427 0 4.615-.07a8.208 8.208 0 0 0 2.719-.52 5.736 5.736 0 0 0 3.275-3.27 8.173 8.173 0 0 0 .521-2.715c.054-1.195.07-1.574.07-4.608-.003-3.032-.003-3.417-.072-4.605ZM21.99 27.715a5.744 5.744 0 0 1-5.75-5.741 5.745 5.745 0 0 1 5.75-5.741c3.175 0 5.75 2.57 5.75 5.741a5.746 5.746 0 0 1-5.75 5.74Zm5.98-10.356a1.338 1.338 0 1 1 0-2.677 1.339 1.339 0 1 1 0 2.677Z"/>
    <path fill="#AE1332" d="M21.993 25.479a3.503 3.503 0 1 0 0-7.007 3.503 3.503 0 0 0 0 7.007Z"/>
  </g>
</svg>

<svg xmlns="http://www.w3.org/2000/svg" width="44" height="44" fill="none" viewBox="0 0 44 44">
  <rect width="43" height="43" x=".5" y=".5" stroke="#AE1332" rx="9.5"/>
  <path fill="#AE1332" fill-rule="evenodd" d="M29.21 13.25c-1.19-.07-3.64-.14-7.35-.14h-.49c-3.57 0-5.95.07-7.14.21-1.61.14-2.73.56-3.36 1.12-.56.49-.98 1.4-1.12 2.59-.07.77-.14 2.38-.14 4.83v.35c0 2.31.07 3.92.21 4.69.21 1.12.56 1.96 1.26 2.45.7.56 1.89.91 3.57 1.05 1.19.07 3.64.14 7.35.14h.49c3.57 0 5.95-.07 7.14-.21 1.61-.14 2.73-.56 3.36-1.12.56-.49.98-1.4 1.12-2.59.07-.77.14-2.38.14-4.83v-.35c0-2.31-.07-3.92-.21-4.69-.21-1.12-.56-1.96-1.26-2.45-.7-.56-1.89-.91-3.57-1.05Zm-2.73 8.61-7.7 4.62v-9.24l7.7 4.62Z" clip-rule="evenodd" opacity=".8"/>
</svg>
